<svg width="43" height="40" viewBox="0 0 43 40" fill="none" xmlns="http://www.w3.org/2000/svg">
<rect x="1.74414" width="40" height="40" rx="20" fill="#6200EE"/>
<rect x="1.74414" width="40" height="40" rx="20" fill="white" fill-opacity="0.04"/>
<path d="M29.1318 24.375C29.4131 24.375 29.6475 24.4688 29.835 24.6562C30.0225 24.8438 30.1162 25.0781 30.1162 25.3594V28.8281C30.1162 29.6094 29.7881 30 29.1318 30C24.4756 30 20.4756 28.3281 17.1318 24.9844C13.7881 21.6406 12.1162 17.6406 12.1162 12.9844C12.1162 12.3281 12.5068 12 13.2881 12H16.7568C17.0381 12 17.2725 12.0938 17.46 12.2812C17.6475 12.4688 17.7412 12.7031 17.7412 12.9844C17.7412 14.2031 17.9287 15.375 18.3037 16.5C18.4287 16.9062 18.3506 17.25 18.0693 17.5312L16.1475 19.2188C17.585 22.2188 19.8818 24.4844 23.0381 26.0156L24.585 24.0469C24.7725 23.8594 25.0068 23.7656 25.2881 23.7656C25.4443 23.7656 25.5537 23.7812 25.6162 23.8125C26.7412 24.1875 27.9131 24.375 29.1318 24.375Z" fill="white"/>
</svg>
