<svg width="43" height="40" viewBox="0 0 43 40" fill="none" xmlns="http://www.w3.org/2000/svg">
<rect x="1.74414" width="40" height="40" rx="20" fill="#D44638"/>
<rect x="1.74414" width="40" height="40" rx="20" fill="white" fill-opacity="0.04"/>
<path d="M29.1318 16.0156V14L21.1162 19.0156L13.1006 14V16.0156L21.1162 20.9844L29.1318 16.0156ZM29.1318 11.9844C29.6631 11.9844 30.1162 12.1875 30.4912 12.5938C30.8975 13 31.1006 13.4688 31.1006 14V26C31.1006 26.5312 30.8975 27 30.4912 27.4062C30.1162 27.8125 29.6631 28.0156 29.1318 28.0156H13.1006C12.5693 28.0156 12.1006 27.8125 11.6943 27.4062C11.3193 27 11.1318 26.5312 11.1318 26V14C11.1318 13.4688 11.3193 13 11.6943 12.5938C12.1006 12.1875 12.5693 11.9844 13.1006 11.9844H29.1318Z" fill="white"/>
</svg>
