<svg width="43" height="40" viewBox="0 0 43 40" fill="none" xmlns="http://www.w3.org/2000/svg">
<rect x="1.74414" width="40" height="40" rx="20" fill="#25D366"/>
<rect x="1.74414" width="40" height="40" rx="20" fill="white" fill-opacity="0.04"/>
<path d="M30.4707 11.4875C28.1216 9.2375 24.9933 8 21.6687 8C14.8066 8 9.22273 13.3357 9.22273 19.8929C9.22273 21.9875 9.79457 24.0339 10.8822 25.8393L9.11621 32L15.7148 30.3446C17.5313 31.2929 19.5776 31.7911 21.6631 31.7911H21.6687C28.5253 31.7911 34.2325 26.4554 34.2325 19.8982C34.2325 16.7214 32.8197 13.7375 30.4707 11.4875V11.4875ZM21.6687 29.7875C19.8074 29.7875 17.9854 29.3107 16.3988 28.4107L16.0232 28.1964L12.11 29.1768L13.1528 25.5286L12.9061 25.1536C11.8689 23.5786 11.3251 21.7625 11.3251 19.8929C11.3251 14.4446 15.9671 10.0089 21.6744 10.0089C24.4383 10.0089 27.034 11.0375 28.985 12.9071C30.936 14.7768 32.1357 17.2571 32.1301 19.8982C32.1301 25.3518 27.3704 29.7875 21.6687 29.7875V29.7875ZM27.3423 22.3839C27.034 22.2339 25.5035 21.5161 25.2175 21.4196C24.9316 21.3179 24.7242 21.2696 24.5168 21.5696C24.3093 21.8696 23.715 22.5339 23.53 22.7375C23.3506 22.9357 23.1656 22.9625 22.8573 22.8125C21.0296 21.9393 19.8299 21.2536 18.6245 19.2768C18.305 18.7518 18.9441 18.7893 19.5383 17.6536C19.6393 17.4554 19.5888 17.2839 19.5103 17.1339C19.4318 16.9839 18.8095 15.5214 18.5516 14.9268C18.2994 14.3482 18.0415 14.4286 17.8508 14.4179C17.6714 14.4071 17.464 14.4071 17.2566 14.4071C17.0491 14.4071 16.7128 14.4821 16.4268 14.7768C16.1409 15.0768 15.3392 15.7946 15.3392 17.2571C15.3392 18.7196 16.4549 20.1339 16.6062 20.3321C16.7632 20.5304 18.7983 23.5304 21.921 24.8214C23.8944 25.6357 24.6681 25.7054 25.6548 25.5661C26.2547 25.4804 27.4937 24.8482 27.7516 24.1518C28.0095 23.4554 28.0095 22.8607 27.931 22.7375C27.8581 22.6036 27.6507 22.5286 27.3423 22.3839Z" fill="white"/>
</svg>
