<?xml version="1.0" encoding="UTF-8" standalone="no"?>
<svg
   xmlns:dc="http://purl.org/dc/elements/1.1/"
   xmlns:cc="http://creativecommons.org/ns#"
   xmlns:rdf="http://www.w3.org/1999/02/22-rdf-syntax-ns#"
   xmlns:svg="http://www.w3.org/2000/svg"
   xmlns="http://www.w3.org/2000/svg"
   xmlns:xlink="http://www.w3.org/1999/xlink"
   enable-background="new"
   id="svg8"
   version="1.1"
   viewBox="0 0 67.733335 67.733335"
   height="192pt"
   width="192pt">
  <defs
     id="defs2">
    <linearGradient
       id="linearGradient6529">
      <stop
         id="stop6525"
         offset="0"
         style="stop-color:#ffffff;stop-opacity:1;" />
      <stop
         id="stop6527"
         offset="1"
         style="stop-color:#ffffff;stop-opacity:0;" />
    </linearGradient>
    <filter
       height="1.144365"
       y="-0.072182501"
       width="1.286551"
       x="-0.14327551"
       id="filter4991"
       style="color-interpolation-filters:sRGB">
      <feGaussianBlur
         id="feGaussianBlur4993"
         stdDeviation="1.9933475" />
    </filter>
    <filter
       height="2.1166698"
       y="-0.55833489"
       width="2.1166698"
       x="-0.55833489"
       id="filter5043"
       style="color-interpolation-filters:sRGB">
      <feGaussianBlur
         id="feGaussianBlur5045"
         stdDeviation="1.9696813" />
    </filter>
    <filter
       height="2.1166698"
       y="-0.55833489"
       width="2.1166698"
       x="-0.55833489"
       id="filter5047"
       style="color-interpolation-filters:sRGB">
      <feGaussianBlur
         id="feGaussianBlur5049"
         stdDeviation="1.9696813" />
    </filter>
    <filter
       height="2.1166698"
       y="-0.55833489"
       width="2.1166698"
       x="-0.55833489"
       id="filter5051"
       style="color-interpolation-filters:sRGB">
      <feGaussianBlur
         id="feGaussianBlur5053"
         stdDeviation="1.9696813" />
    </filter>
    <linearGradient
       gradientTransform="matrix(0.90027372,0,0,0.98994946,13.73872,3.3738619)"
       gradientUnits="userSpaceOnUse"
       y2="64.441673"
       x2="49.264549"
       y1="8.9028311"
       x1="-26.19282"
       id="linearGradient6531"
       xlink:href="#linearGradient6529" />
    <filter
       height="1.0947767"
       y="-0.047388328"
       width="1.0972682"
       x="-0.04863412"
       id="filter6609"
       style="color-interpolation-filters:sRGB">
      <feGaussianBlur
         id="feGaussianBlur6611"
         stdDeviation="0.8277245" />
    </filter>
    <filter
       height="1.1358637"
       y="-0.067931843"
       width="1.1407009"
       x="-0.07035046"
       id="filter1532"
       style="color-interpolation-filters:sRGB">
      <feGaussianBlur
         id="feGaussianBlur1534"
         stdDeviation="1.6363156" />
    </filter>
    <filter
       height="1.1361673"
       y="-0.068083628"
       width="1.1403768"
       x="-0.070188411"
       id="filter1542"
       style="color-interpolation-filters:sRGB">
      <feGaussianBlur
         id="feGaussianBlur1544"
         stdDeviation="1.8801555" />
    </filter>
  </defs>
  <metadata
     id="metadata5">
    <rdf:RDF>
      <cc:Work
         rdf:about="">
        <dc:format>image/svg+xml</dc:format>
        <dc:type
           rdf:resource="http://purl.org/dc/dcmitype/StillImage" />
        <dc:title></dc:title>
      </cc:Work>
    </rdf:RDF>
  </metadata>
  <g
     style="display:none;opacity:1"
     id="layer11" />
  <g
     style="display:none"
     id="layer4">
    <rect
       y="0.047274385"
       x="0.023623392"
       height="67.73333"
       width="67.73333"
       id="rect4520"
       style="fill:#312d21;fill-opacity:1;stroke:none;stroke-width:1.4;stroke-miterlimit:4;stroke-dasharray:none;stroke-opacity:1" />
  </g>
  <g
     style="display:none"
     id="layer3">
    <ellipse
       ry="30.338888"
       rx="30.339001"
       cy="263.13333"
       cx="33.866779"
       id="path4530"
       style="fill:#e86464;fill-opacity:1;stroke:none;stroke-width:1.4;stroke-miterlimit:4;stroke-dasharray:none;stroke-opacity:1"
       transform="translate(0,-229.26665)" />
  </g>
  <g
     style="display:inline;opacity:0.125;filter:url(#filter1532)"
     id="layer8">
    <path
       transform="matrix(1.3412239,-0.26241019,0.25984225,1.3543558,-74.864431,-313.0147)"
       d="m 21.632419,281.70539 -12.0935369,-14.19703 3.5594909,-18.30682 16.532149,-8.63119 17.055762,7.5439 4.736039,18.03827 -11.150019,14.94947 z"
       id="path4524-2"
       style="fill:#000000;fill-opacity:1;stroke:#000000;stroke-width:1.0327;stroke-miterlimit:4;stroke-dasharray:none;stroke-opacity:0.972093;filter:url(#filter6609)" />
  </g>
  <g
     style="display:inline"
     id="layer10">
    <path
       id="path6615"
       d="M 63.262086,33.920812 52.222894,10.762183 27.387076,5.0278 7.4565091,21.035787 7.5389,33.848721 Z"
       style="display:inline;fill:#ffffff;fill-opacity:1;stroke:none;stroke-width:0.264419px;stroke-linecap:butt;stroke-linejoin:miter;stroke-opacity:1" />
    <path
       transform="translate(0,-229.26665)"
       id="path6617"
       d="m 63.262086,263.22342 -55.7231862,-0.0722 -0.099581,12.8991 19.9091312,16.05437 24.843467,-5.70852 z"
       style="display:inline;fill:#e6e6e6;fill-opacity:1;stroke:none;stroke-width:0.264583px;stroke-linecap:butt;stroke-linejoin:miter;stroke-opacity:1" />
  </g>
  <g
     style="display:inline"
     transform="translate(0,-229.26665)"
     id="layer1">
    <path
       transform="matrix(1.3412239,-0.26241019,0.25984225,1.3543558,-74.864432,-83.748058)"
       d="m 21.632419,281.70539 -12.0935369,-14.19703 3.5594909,-18.30682 16.532149,-8.63119 17.055762,7.5439 4.736039,18.03827 -11.150019,14.94947 z"
       id="path4524"
       style="fill:none;fill-opacity:1;stroke:#969696;stroke-width:1.0327;stroke-miterlimit:4;stroke-dasharray:none;stroke-opacity:1" />
  </g>
  <g
     style="display:inline;opacity:0.125;filter:url(#filter1542)"
     id="layer6">
    <path
       d="m 31.587926,40.310528 -0.0061,22.527532 c -3e-6,2.338002 -1.89533,4.233331 -4.233334,4.233331 -2.338004,0 -4.233331,-1.895329 -4.233331,-4.233331 l 0.03858,-57.8102601 c 2e-6,-2.3380002 1.89533,-4.2333302 4.233334,-4.2333302 2.338004,0 4.233331,1.89533 4.233333,4.2333302 L 31.604625,27.510253 48.854356,7.9819011 c 1.508721,-1.7860629 4.179671,-2.0108929 5.965736,-0.502172 l -3e-6,-2.9e-6 c 0.830586,0.7016088 1.323541,1.6545608 1.461537,2.6529798 0.158748,1.148556 -0.152246,2.357282 -0.95936,3.312764 L 37.244061,33.907034 55.55303,54.38021 c 1.477494,1.81198 1.206344,4.478626 -0.605637,5.956122 -1.81198,1.477495 -4.478623,1.206342 -5.956119,-0.605636 z"
       style="display:inline;fill:#000000;fill-opacity:1;stroke:none;stroke-width:0.352778;stroke-miterlimit:4;stroke-dasharray:none;stroke-opacity:1;filter:url(#filter4991)"
       id="path4532-8-5-6" />
    <circle
       r="4.2333331"
       cy="21.059755"
       cx="7.4522004"
       id="path4532-1"
       style="display:inline;fill:#000000;fill-opacity:1;stroke:none;stroke-width:1.41111;stroke-miterlimit:4;stroke-dasharray:none;stroke-opacity:1;filter:url(#filter5047)" />
    <circle
       r="4.2333331"
       cy="46.78772"
       cx="7.4350095"
       id="path4532-2-7"
       style="display:inline;fill:#000000;fill-opacity:1;stroke:none;stroke-width:1.41111;stroke-miterlimit:4;stroke-dasharray:none;stroke-opacity:1;filter:url(#filter5043)" />
    <circle
       r="4.2333331"
       cy="33.960815"
       cx="63.257778"
       id="path4532-88-1"
       style="display:inline;fill:#000000;fill-opacity:1;stroke:none;stroke-width:1.41111;stroke-miterlimit:4;stroke-dasharray:none;stroke-opacity:1;filter:url(#filter5051)" />
  </g>
  <g
     style="display:inline"
     id="layer2">
    <circle
       r="4.2333331"
       cy="250.32236"
       cx="7.4565082"
       id="path4532"
       style="fill:#98c725;fill-opacity:1;stroke:none;stroke-width:1.41111;stroke-miterlimit:4;stroke-dasharray:none;stroke-opacity:1"
       transform="translate(0,-229.26665)" />
    <circle
       r="4.2333331"
       cy="276.05032"
       cx="7.4393177"
       id="path4532-2"
       style="fill:#72a310;fill-opacity:1;stroke:none;stroke-width:1.41111;stroke-miterlimit:4;stroke-dasharray:none;stroke-opacity:1"
       transform="translate(0,-229.26665)" />
    <circle
       r="4.2333331"
       cy="263.22342"
       cx="63.262085"
       id="path4532-88"
       style="fill:#85b51b;fill-opacity:1;stroke:none;stroke-width:1.41111;stroke-miterlimit:4;stroke-dasharray:none;stroke-opacity:1"
       transform="translate(0,-229.26665)" />
    <path
       id="path6827"
       d="M 37.244061,33.888429 55.55303,54.373091 c 1.477495,1.812996 1.206343,4.481138 -0.605636,5.959464 -1.81198,1.478322 -4.478625,1.207017 -5.95612,-0.605979 l -17.403348,-19.43106 -0.0061,22.540169 c -3e-6,2.339312 -1.89533,4.235705 -4.233334,4.235705 -2.338004,0 -4.233331,-1.896393 -4.233331,-4.235705 l 0.0193,-28.93053"
       style="display:inline;fill:#72a310;fill-opacity:1;stroke:none;stroke-width:0.352877;stroke-miterlimit:4;stroke-dasharray:none;stroke-opacity:1" />
    <path
       id="path4532-8-5"
       d="m 23.134461,33.905155 0.01928,-28.8797311 c 2e-6,-2.3366877 1.89533,-4.2309539 4.233334,-4.2309539 2.338004,0 4.233332,1.8942662 4.233334,4.2309539 L 31.604625,27.495258 48.854356,7.9778672 c 1.508721,-1.7850605 4.179672,-2.0097642 5.965736,-0.50189 l -4e-6,-3e-6 c 0.830586,0.7012151 1.323542,1.6536319 1.461538,2.6514898 0.158748,1.147912 -0.152246,2.355959 -0.95936,3.310905 l -18.078205,20.45008"
       style="display:inline;fill:#98c725;fill-opacity:1;stroke:none;stroke-width:0.352678;stroke-miterlimit:4;stroke-dasharray:none;stroke-opacity:1" />
  </g>
  <g
     style="display:inline;opacity:0.125"
     id="layer7">
    <rect
       y="0.047274385"
       x="0.023623392"
       height="67.73333"
       width="67.73333"
       id="rect6523"
       style="display:inline;fill:url(#linearGradient6531);fill-opacity:1;stroke:none;stroke-width:0.0333039;stroke-miterlimit:4;stroke-dasharray:none;stroke-opacity:1" />
  </g>
  <g
     style="display:none"
     id="layer5">
    <circle
       r="4.2333331"
       cy="33.976521"
       cx="31.567596"
       id="path4532-2-8"
       style="display:inline;fill:#ff52ff;fill-opacity:1;stroke:none;stroke-width:1.41111;stroke-miterlimit:4;stroke-dasharray:none;stroke-opacity:1" />
    <path
       id="path4639"
       d="M 63.262086,33.956765 H 1.6036172"
       style="display:inline;fill:none;stroke:#000000;stroke-width:0.0352778;stroke-linecap:butt;stroke-linejoin:miter;stroke-miterlimit:4;stroke-dasharray:none;stroke-opacity:1" />
    <path
       id="path4641"
       d="M 31.583447,62.640644 V 2.8259114"
       style="display:inline;fill:none;stroke:#000000;stroke-width:0.0352778;stroke-linecap:butt;stroke-linejoin:miter;stroke-miterlimit:4;stroke-dasharray:none;stroke-opacity:1" />
    <path
       id="path4658"
       d="M 49.420385,7.4461308 19.465774,41.180506"
       style="display:inline;fill:none;stroke:#000000;stroke-width:0.0352778;stroke-linecap:butt;stroke-linejoin:miter;stroke-miterlimit:4;stroke-dasharray:none;stroke-opacity:1" />
    <path
       id="path4660"
       d="M 55.751489,54.598659 20.977678,15.761607"
       style="display:inline;fill:none;stroke:#000000;stroke-width:0.0352778;stroke-linecap:butt;stroke-linejoin:miter;stroke-miterlimit:4;stroke-dasharray:none;stroke-opacity:1" />
    <path
       id="path4662"
       d="M 49.325892,59.984822 7.4650297,13.49375"
       style="display:inline;fill:none;stroke:#000000;stroke-width:0.0352778;stroke-linecap:butt;stroke-linejoin:miter;stroke-miterlimit:4;stroke-dasharray:none;stroke-opacity:1" />
    <path
       id="path4664"
       d="M 55.658879,13.143532 20.980658,52.298517"
       style="display:inline;fill:none;stroke:#000000;stroke-width:0.0352778;stroke-linecap:butt;stroke-linejoin:miter;stroke-miterlimit:4;stroke-dasharray:none;stroke-opacity:1" />
  </g>
</svg>
