<?xml version="1.0" encoding="UTF-8" standalone="no"?>
<!-- Created with Inkscape (http://www.inkscape.org/) -->

<svg
   xmlns:dc="http://purl.org/dc/elements/1.1/"
   xmlns:cc="http://creativecommons.org/ns#"
   xmlns:rdf="http://www.w3.org/1999/02/22-rdf-syntax-ns#"
   xmlns:svg="http://www.w3.org/2000/svg"
   xmlns="http://www.w3.org/2000/svg"
   xmlns:sodipodi="http://sodipodi.sourceforge.net/DTD/sodipodi-0.dtd"
   xmlns:inkscape="http://www.inkscape.org/namespaces/inkscape"
   width="111mm"
   height="23mm"
   viewBox="0 0 111 23"
   version="1.1"
   id="svg8"
   inkscape:version="0.92.3 (2405546, 2018-03-11)"
   sodipodi:docname="komunitin.svg">
  <defs
     id="defs2" />
  <sodipodi:namedview
     id="base"
     pagecolor="#ffffff"
     bordercolor="#666666"
     borderopacity="1.0"
     inkscape:pageopacity="0.0"
     inkscape:pageshadow="2"
     inkscape:zoom="0.35"
     inkscape:cx="601.05586"
     inkscape:cy="714.64191"
     inkscape:document-units="mm"
     inkscape:current-layer="layer1"
     showgrid="false"
     inkscape:window-width="1334"
     inkscape:window-height="717"
     inkscape:window-x="32"
     inkscape:window-y="30"
     inkscape:window-maximized="1" />
  <metadata
     id="metadata5">
    <rdf:RDF>
      <cc:Work
         rdf:about="">
        <dc:format>image/svg+xml</dc:format>
        <dc:type
           rdf:resource="http://purl.org/dc/dcmitype/StillImage" />
        <dc:title></dc:title>
      </cc:Work>
    </rdf:RDF>
  </metadata>
  <g
     inkscape:label="Capa 1"
     inkscape:groupmode="layer"
     id="layer1"
     transform="translate(0,-274)">
    <g
       aria-label="Komunitin"
       transform="matrix(0.26458333,0,0,0.26458333,-29.482143,198.05952)"
       style="font-style:normal;font-variant:normal;font-weight:normal;font-stretch:normal;font-size:40px;line-height:1.25;font-family:'Bitstream Charter';-inkscape-font-specification:'Bitstream Charter';letter-spacing:0px;word-spacing:0px;fill:#98c725;fill-opacity:1;stroke:none"
       id="flowRoot10">
      <path
         d="m 128.53084,361.72331 h 20.736 v -3.49866 l -5.29066,-0.42667 -1.45067,-1.19467 v -20.39466 h 6.31467 l 16.29866,22.95466 v 2.56 h 14.08001 v -3.49866 l -6.22934,-0.42667 -19.37067,-27.81867 17.92001,-21.33333 5.632,-0.768 v -3.41333 h -17.74934 v 3.41333 l 4.77867,0.512 0.512,1.19467 -18.944,23.12533 h -3.24267 v -23.12533 l 1.45067,-1.19467 5.29066,-0.512 v -3.41333 h -20.736 v 3.41333 l 4.864,0.512 1.45067,1.19467 v 47.01866 l -1.45067,1.19467 -4.864,0.42667 z"
         style="font-style:normal;font-variant:normal;font-weight:normal;font-stretch:normal;font-size:85.33333588px;font-family:'Bitstream Charter';-inkscape-font-specification:'Bitstream Charter';fill:#98c725;fill-opacity:1"
         id="path4545"
         inkscape:connector-curvature="0" />
      <path
         d="m 200.83618,319.82465 c -11.52,0 -19.79733,8.61866 -19.79733,21.33333 0,12.62933 8.36266,21.33333 19.79733,21.33333 11.43467,0 19.88267,-8.704 19.88267,-21.33333 0,-12.62933 -8.36267,-21.33333 -19.88267,-21.33333 z m 0,3.66933 c 6.912,0 11.86133,6.656 11.86133,17.664 0,11.09333 -4.94933,17.664 -11.86133,17.664 -6.82667,0 -11.776,-6.656 -11.776,-17.664 0,-11.09333 4.864,-17.664 11.776,-17.664 z"
         style="font-style:normal;font-variant:normal;font-weight:normal;font-stretch:normal;font-size:85.33333588px;font-family:'Bitstream Charter';-inkscape-font-specification:'Bitstream Charter';fill:#98c725;fill-opacity:1"
         id="path4547"
         inkscape:connector-curvature="0" />
      <path
         d="m 262.62285,325.54198 c -1.96267,-3.75467 -5.20533,-5.71733 -9.38667,-5.71733 -3.584,0 -8.02133,1.792 -13.65333,5.12 v -4.69334 h -3.24267 l -9.89866,3.072 v 2.64534 h 6.05866 v 30.89066 l -1.45066,1.36534 -4.608,0.42666 v 3.072 h 18.688 v -3.072 l -4.096,-0.42666 -1.45067,-1.36534 v -28.58666 c 3.75467,-1.87734 6.912,-2.816 9.728,-2.816 5.12,0 7.50933,2.816 7.50933,8.78933 v 22.61333 l -1.45066,1.36534 -4.096,0.42666 v 3.072 h 18.176 v -3.072 l -4.01067,-0.42666 -1.536,-1.36534 v -28.58666 c 3.66933,-1.792 6.912,-2.816 9.64267,-2.816 5.29066,0 7.68,2.816 7.68,8.78933 v 22.61333 l -1.536,1.36534 -4.01067,0.42666 v 3.072 h 18.60267 v -3.072 l -4.52267,-0.42666 -1.45067,-1.36534 v -24.064 c 0,-8.448 -4.26666,-12.97066 -11.008,-12.97066 -3.41333,0 -8.27733,1.96266 -14.67733,5.71733 z"
         style="font-style:normal;font-variant:normal;font-weight:normal;font-stretch:normal;font-size:85.33333588px;font-family:'Bitstream Charter';-inkscape-font-specification:'Bitstream Charter';fill:#98c725;fill-opacity:1"
         id="path4549"
         inkscape:connector-curvature="0" />
      <path
         d="m 307.99885,319.82465 -9.89867,3.15733 v 2.64533 h 6.05867 v 23.89334 c 0,8.53333 4.096,13.056 11.43467,13.056 4.18133,0 8.704,-1.96267 13.824,-5.632 v 4.77866 h 12.62933 v -3.072 l -4.01067,-0.42666 -1.536,-1.36534 v -37.03466 h -3.24266 l -9.89867,3.15733 v 2.64533 h 6.05867 v 28.928 c -3.49867,1.70667 -6.74134,2.56 -9.89867,2.56 -5.71733,0 -8.27733,-2.90133 -8.27733,-9.04533 v -28.24533 z"
         style="font-style:normal;font-variant:normal;font-weight:normal;font-stretch:normal;font-size:85.33333588px;font-family:'Bitstream Charter';-inkscape-font-specification:'Bitstream Charter';fill:#98c725;fill-opacity:1"
         id="path4551"
         inkscape:connector-curvature="0" />
      <path
         d="m 346.94152,361.72331 h 18.688 v -3.072 l -4.096,-0.42666 -1.45067,-1.36534 v -28.58666 c 3.66933,-1.87734 6.82667,-2.816 9.55733,-2.816 6.31467,0 8.61867,2.56 8.61867,8.78933 v 22.61333 l -1.45067,1.36534 -4.096,0.42666 v 3.072 h 18.688 v -3.072 l -4.608,-0.42666 -1.45066,-1.36534 v -24.064 c 0,-8.53333 -4.096,-12.97066 -11.52,-12.97066 -3.66934,0 -8.02134,1.96266 -13.73867,5.12 v -4.69334 h -3.24267 l -9.89866,3.072 v 2.64534 h 6.05866 v 30.89066 l -1.45066,1.36534 -4.608,0.42666 z"
         style="font-style:normal;font-variant:normal;font-weight:normal;font-stretch:normal;font-size:85.33333588px;font-family:'Bitstream Charter';-inkscape-font-specification:'Bitstream Charter';fill:#98c725;fill-opacity:1"
         id="path4553"
         inkscape:connector-curvature="0" />
      <path
         d="m 406.02283,301.30731 c -2.73066,0 -4.94933,2.13334 -4.94933,4.94934 0,2.73066 2.21867,4.864 4.94933,4.864 2.73067,0 4.94934,-2.13334 4.94934,-4.864 0,-2.73067 -2.21867,-4.94934 -4.94934,-4.94934 z m -0.34133,18.944 -9.81333,3.072 v 2.64534 h 5.97333 v 30.89066 l -1.45067,1.36534 -4.52266,0.42666 v 3.072 h 19.2 v -3.072 l -4.608,-0.42666 -1.536,-1.36534 v -36.608 z"
         style="font-style:normal;font-variant:normal;font-weight:normal;font-stretch:normal;font-size:85.33333588px;font-family:'Bitstream Charter';-inkscape-font-specification:'Bitstream Charter';fill:#98c725;fill-opacity:1"
         id="path4555"
         inkscape:connector-curvature="0" />
      <path
         d="m 424.22418,325.79798 v 27.56267 c 0,6.05866 1.792,8.61866 8.87466,8.61866 3.328,0 7.168,-0.59733 11.17867,-1.87733 v -3.15733 c -1.96267,0.42666 -3.92533,0.68266 -5.888,0.68266 -5.97333,0 -7.08267,-2.816 -7.08267,-9.30133 v -22.528 h 12.97067 v -4.01067 h -12.97067 v -9.04533 h -3.15733 l -3.66933,7.936 -5.632,2.47467 v 2.64533 z"
         style="font-style:normal;font-variant:normal;font-weight:normal;font-stretch:normal;font-size:85.33333588px;font-family:'Bitstream Charter';-inkscape-font-specification:'Bitstream Charter';fill:#98c725;fill-opacity:1"
         id="path4557"
         inkscape:connector-curvature="0" />
      <path
         d="m 458.35618,301.30731 c -2.73067,0 -4.94934,2.13334 -4.94934,4.94934 0,2.73066 2.21867,4.864 4.94934,4.864 2.73066,0 4.94933,-2.13334 4.94933,-4.864 0,-2.73067 -2.21867,-4.94934 -4.94933,-4.94934 z m -0.34134,18.944 -9.81333,3.072 v 2.64534 h 5.97333 v 30.89066 l -1.45066,1.36534 -4.52267,0.42666 v 3.072 h 19.2 v -3.072 l -4.608,-0.42666 -1.536,-1.36534 v -36.608 z"
         style="font-style:normal;font-variant:normal;font-weight:normal;font-stretch:normal;font-size:85.33333588px;font-family:'Bitstream Charter';-inkscape-font-specification:'Bitstream Charter';fill:#98c725;fill-opacity:1"
         id="path4559"
         inkscape:connector-curvature="0" />
      <path
         d="m 471.60819,361.72331 h 18.688 v -3.072 l -4.096,-0.42666 -1.45067,-1.36534 v -28.58666 c 3.66933,-1.87734 6.82667,-2.816 9.55733,-2.816 6.31467,0 8.61867,2.56 8.61867,8.78933 v 22.61333 l -1.45067,1.36534 -4.096,0.42666 v 3.072 h 18.68801 v -3.072 l -4.608,-0.42666 -1.45067,-1.36534 v -24.064 c 0,-8.53333 -4.096,-12.97066 -11.52,-12.97066 -3.66934,0 -8.02134,1.96266 -13.73867,5.12 v -4.69334 h -3.24267 l -9.89866,3.072 v 2.64534 h 6.05866 v 30.89066 l -1.45066,1.36534 -4.608,0.42666 z"
         style="font-style:normal;font-variant:normal;font-weight:normal;font-stretch:normal;font-size:85.33333588px;font-family:'Bitstream Charter';-inkscape-font-specification:'Bitstream Charter';fill:#98c725;fill-opacity:1"
         id="path4561"
         inkscape:connector-curvature="0" />
    </g>
  </g>
</svg>
